<svg xmlns="http://www.w3.org/2000/svg" viewBox="0 0 3506.0 985.0" width="3506.0" height="985.0">
  <g transform="translate(38.00, 775.00) scale(1,-1)">
    <path d="M105.0 -150V-63H170.0Q197.0 -63 210.0 -55.0Q223.0 -47 230.0 -28L247.0 16H214.0L22.0 532H134.0L280.0 114L419.0 532H532.0L320.0 -62Q304.0 -108 272.5 -129.0Q241.0 -150 185.0 -150Z M802.0 -12Q724.0 -12 667.5 22.0Q611.0 56 580.5 119.0Q550.0 182 550.0 266Q550.0 350 580.5 412.5Q611.0 475 667.0 509.5Q723.0 544 799.0 544Q871.0 544 926.0 510.5Q981.0 477 1011.5 414.0Q1042.0 351 1042.0 262V235H660.0Q664.0 157 701.5 118.0Q739.0 79 803.0 79Q850.0 79 881.0 101.0Q912.0 123 924.0 160L1034.0 153Q1013.0 79 951.5 33.5Q890.0 -12 802.0 -12ZM660.0 315H930.0Q925.0 386 889.5 420.0Q854.0 454 799.0 454Q742.0 454 705.5 418.5Q669.0 383 660.0 315Z M1114.0 0V532H1211.0L1214.0 400L1202.0 404Q1211.0 448 1233.5 479.0Q1256.0 510 1289.0 527.0Q1322.0 544 1361.0 544Q1429.0 544 1472.0 505.5Q1515.0 467 1526.0 400H1509.0Q1518.0 447 1539.5 478.5Q1561.0 510 1595.0 527.0Q1629.0 544 1672.0 544Q1728.0 544 1767.5 520.5Q1807.0 497 1827.5 452.0Q1848.0 407 1848.0 342V0H1742.0V316Q1742.0 385 1717.0 420.0Q1692.0 455 1641.0 455Q1608.0 455 1583.0 438.0Q1558.0 421 1544.5 389.0Q1531.0 357 1531.0 312V0H1430.0V312Q1430.0 380 1407.5 417.5Q1385.0 455 1331.0 455Q1297.0 455 1272.5 438.0Q1248.0 421 1234.0 388.5Q1220.0 356 1220.0 312V0Z M1954.0 -150V532H2054.0L2057.0 418L2045.0 424Q2065.0 483 2111.0 513.5Q2157.0 544 2217.0 544Q2295.0 544 2345.5 505.5Q2396.0 467 2420.5 404.0Q2445.0 341 2445.0 266Q2445.0 191 2420.5 128.0Q2396.0 65 2345.5 26.5Q2295.0 -12 2217.0 -12Q2177.0 -12 2142.0 2.0Q2107.0 16 2082.5 41.5Q2058.0 67 2048.0 102L2060.0 114V-150ZM2198.0 80Q2262.0 80 2298.5 129.0Q2335.0 178 2335.0 266Q2335.0 354 2298.5 403.0Q2262.0 452 2198.0 452Q2156.0 452 2125.0 431.5Q2094.0 411 2077.0 369.0Q2060.0 327 2060.0 266Q2060.0 205 2076.5 163.0Q2093.0 121 2124.5 100.5Q2156.0 80 2198.0 80Z M2517.0 0V532H2623.0V0ZM2515.0 609V715H2625.0V609Z M2728.0 0V710H2834.0V269L3073.0 532H3207.0L2999.0 308L3215.0 0H3093.0L2928.0 242L2834.0 142V0Z" fill="#FAFAF8"/>
    <path d="M3279.0 0V126H3408.0V0Z" fill="#E35B2D"/>
  </g>
</svg>