<svg xmlns="http://www.w3.org/2000/svg" viewBox="0 0 560 440" width="560" height="440"><g fill="#6f7173" opacity="0.15"><circle cx="67" cy="67" r="1.4"/><circle cx="134" cy="67" r="1.4"/><circle cx="201" cy="67" r="1.4"/><circle cx="268" cy="67" r="1.4"/><circle cx="335" cy="67" r="1.4"/><circle cx="402" cy="67" r="1.4"/><circle cx="469" cy="67" r="1.4"/><circle cx="536" cy="67" r="1.4"/><circle cx="67" cy="134" r="1.4"/><circle cx="134" cy="134" r="1.4"/><circle cx="201" cy="134" r="1.4"/><circle cx="268" cy="134" r="1.4"/><circle cx="335" cy="134" r="1.4"/><circle cx="402" cy="134" r="1.4"/><circle cx="469" cy="134" r="1.4"/><circle cx="536" cy="134" r="1.4"/><circle cx="67" cy="201" r="1.4"/><circle cx="134" cy="201" r="1.4"/><circle cx="201" cy="201" r="1.4"/><circle cx="268" cy="201" r="1.4"/><circle cx="335" cy="201" r="1.4"/><circle cx="402" cy="201" r="1.4"/><circle cx="469" cy="201" r="1.4"/><circle cx="536" cy="201" r="1.4"/><circle cx="67" cy="268" r="1.4"/><circle cx="134" cy="268" r="1.4"/><circle cx="201" cy="268" r="1.4"/><circle cx="268" cy="268" r="1.4"/><circle cx="335" cy="268" r="1.4"/><circle cx="402" cy="268" r="1.4"/><circle cx="469" cy="268" r="1.4"/><circle cx="536" cy="268" r="1.4"/><circle cx="67" cy="335" r="1.4"/><circle cx="134" cy="335" r="1.4"/><circle cx="201" cy="335" r="1.4"/><circle cx="268" cy="335" r="1.4"/><circle cx="335" cy="335" r="1.4"/><circle cx="402" cy="335" r="1.4"/><circle cx="469" cy="335" r="1.4"/><circle cx="536" cy="335" r="1.4"/><circle cx="67" cy="402" r="1.4"/><circle cx="134" cy="402" r="1.4"/><circle cx="201" cy="402" r="1.4"/><circle cx="268" cy="402" r="1.4"/><circle cx="335" cy="402" r="1.4"/><circle cx="402" cy="402" r="1.4"/><circle cx="469" cy="402" r="1.4"/><circle cx="536" cy="402" r="1.4"/></g><path d="M 325.6 52.0 L 171.4 52.0 Q 143.2 52.0 115.0 52.0 L 80.2 52.0 Q 52.0 52.0 52.0 80.2 L 52.0 91.0 Q 52.0 119.2 52.0 147.4 L 52.0 158.2 Q 52.0 186.4 52.0 214.6 L 52.0 388.0" fill="none" stroke="#6f7173" stroke-width="2.2" stroke-linecap="round" stroke-linejoin="round"/><line x1="325.6" y1="52.0" x2="381.9" y2="52.0" stroke="#6f7173" stroke-width="1.8" stroke-dasharray="2 6" stroke-linecap="round" opacity="0.5"/><line x1="143.2" y1="52.0" x2="143.2" y2="128.3" stroke="#6f7173" stroke-width="1.8" stroke-dasharray="2 6" stroke-linecap="round" opacity="0.5"/><rect x="318.2" y="44.6" width="14.784" height="14.784" fill="#6f7173"/><rect x="135.8" y="44.6" width="14.784" height="14.784" fill="none" stroke="#6f7173" stroke-width="2.2"/><rect x="44.6" y="44.6" width="14.784" height="14.784" fill="none" stroke="#6f7173" stroke-width="2.2"/><rect x="44.6" y="111.8" width="14.784" height="14.784" fill="none" stroke="#6f7173" stroke-width="2.2"/><rect x="44.6" y="179.0" width="14.784" height="14.784" fill="#6f7173"/><rect x="44.6" y="380.6" width="14.784" height="14.784" fill="none" stroke="#6f7173" stroke-width="2.2"/><path d="M 31.2 162.56981294658578 L 31.2 174.6658129465858 L 43.296 174.6658129465858" fill="none" stroke="#6f7173" stroke-width="2.2" stroke-linecap="round" opacity="0.85"/></svg>