<svg viewBox="0 0 1080 1080" xmlns="http://www.w3.org/2000/svg" font-family="Geist, Inter, -apple-system, Arial, sans-serif">
  <rect width="1080" height="1080" fill="#0A0A0A"/>
  <line x1="560" y1="120" x2="560" y2="960" stroke="rgb(255,255,255)" stroke-opacity="0.04"/><line x1="600" y1="120" x2="600" y2="960" stroke="rgb(255,255,255)" stroke-opacity="0.04"/><line x1="640" y1="120" x2="640" y2="960" stroke="rgb(255,255,255)" stroke-opacity="0.04"/><line x1="680" y1="120" x2="680" y2="960" stroke="rgb(255,255,255)" stroke-opacity="0.04"/><line x1="720" y1="120" x2="720" y2="960" stroke="rgb(255,255,255)" stroke-opacity="0.04"/><line x1="760" y1="120" x2="760" y2="960" stroke="rgb(255,255,255)" stroke-opacity="0.04"/><line x1="800" y1="120" x2="800" y2="960" stroke="rgb(255,255,255)" stroke-opacity="0.04"/><line x1="840" y1="120" x2="840" y2="960" stroke="rgb(255,255,255)" stroke-opacity="0.04"/><line x1="880" y1="120" x2="880" y2="960" stroke="rgb(255,255,255)" stroke-opacity="0.04"/><line x1="920" y1="120" x2="920" y2="960" stroke="rgb(255,255,255)" stroke-opacity="0.04"/><line x1="960" y1="120" x2="960" y2="960" stroke="rgb(255,255,255)" stroke-opacity="0.04"/><line x1="1000" y1="120" x2="1000" y2="960" stroke="rgb(255,255,255)" stroke-opacity="0.04"/><line x1="1040" y1="120" x2="1040" y2="960" stroke="rgb(255,255,255)" stroke-opacity="0.04"/><line x1="560" y1="160" x2="1040" y2="160" stroke="rgb(255,255,255)" stroke-opacity="0.04"/><line x1="560" y1="200" x2="1040" y2="200" stroke="rgb(255,255,255)" stroke-opacity="0.04"/><line x1="560" y1="240" x2="1040" y2="240" stroke="rgb(255,255,255)" stroke-opacity="0.04"/><line x1="560" y1="280" x2="1040" y2="280" stroke="rgb(255,255,255)" stroke-opacity="0.04"/><line x1="560" y1="320" x2="1040" y2="320" stroke="rgb(255,255,255)" stroke-opacity="0.04"/><line x1="560" y1="360" x2="1040" y2="360" stroke="rgb(255,255,255)" stroke-opacity="0.04"/><line x1="560" y1="400" x2="1040" y2="400" stroke="rgb(255,255,255)" stroke-opacity="0.04"/><line x1="560" y1="440" x2="1040" y2="440" stroke="rgb(255,255,255)" stroke-opacity="0.04"/><line x1="560" y1="480" x2="1040" y2="480" stroke="rgb(255,255,255)" stroke-opacity="0.04"/><line x1="560" y1="520" x2="1040" y2="520" stroke="rgb(255,255,255)" stroke-opacity="0.04"/><line x1="560" y1="560" x2="1040" y2="560" stroke="rgb(255,255,255)" stroke-opacity="0.04"/><line x1="560" y1="600" x2="1040" y2="600" stroke="rgb(255,255,255)" stroke-opacity="0.04"/><line x1="560" y1="640" x2="1040" y2="640" stroke="rgb(255,255,255)" stroke-opacity="0.04"/><line x1="560" y1="680" x2="1040" y2="680" stroke="rgb(255,255,255)" stroke-opacity="0.04"/><line x1="560" y1="720" x2="1040" y2="720" stroke="rgb(255,255,255)" stroke-opacity="0.04"/><line x1="560" y1="760" x2="1040" y2="760" stroke="rgb(255,255,255)" stroke-opacity="0.04"/><line x1="560" y1="800" x2="1040" y2="800" stroke="rgb(255,255,255)" stroke-opacity="0.04"/><line x1="560" y1="840" x2="1040" y2="840" stroke="rgb(255,255,255)" stroke-opacity="0.04"/><line x1="560" y1="880" x2="1040" y2="880" stroke="rgb(255,255,255)" stroke-opacity="0.04"/><line x1="560" y1="920" x2="1040" y2="920" stroke="rgb(255,255,255)" stroke-opacity="0.04"/><line x1="560" y1="960" x2="1040" y2="960" stroke="rgb(255,255,255)" stroke-opacity="0.04"/><rect x="608.0" y="342.0" width="10.1" height="10.1" rx="2" fill="rgb(255,255,255)" opacity="0.05"/><rect x="607.8" y="375.8" width="10.5" height="10.5" rx="2" fill="rgb(255,255,255)" opacity="0.06"/><rect x="607.0" y="579.0" width="11.9" height="11.9" rx="2" fill="rgb(255,255,255)" opacity="0.10"/><rect x="607.0" y="681.0" width="12.1" height="12.1" rx="2" fill="rgb(255,255,255)" opacity="0.10"/><rect x="607.4" y="715.4" width="11.2" height="11.2" rx="2" fill="rgb(255,255,255)" opacity="0.08"/><rect x="607.2" y="817.2" width="11.6" height="11.6" rx="2" fill="rgb(255,255,255)" opacity="0.08"/><rect x="640.8" y="374.8" width="12.3" height="12.3" rx="2" fill="rgb(255,255,255)" opacity="0.10"/><rect x="640.8" y="442.8" width="12.4" height="12.4" rx="2" fill="rgb(255,255,255)" opacity="0.12"/><rect x="641.0" y="511.0" width="12.0" height="12.0" rx="2" fill="rgb(255,255,255)" opacity="0.11"/><rect x="641.2" y="579.2" width="11.5" height="11.5" rx="2" fill="rgb(255,255,255)" opacity="0.10"/><rect x="641.4" y="613.4" width="11.1" height="11.1" rx="2" fill="rgb(255,255,255)" opacity="0.09"/><rect x="641.4" y="647.4" width="11.2" height="11.2" rx="2" fill="rgb(255,255,255)" opacity="0.09"/><rect x="640.8" y="680.8" width="12.3" height="12.3" rx="2" fill="rgb(255,255,255)" opacity="0.12"/><rect x="641.7" y="783.7" width="10.6" height="10.6" rx="2" fill="rgb(255,255,255)" opacity="0.06"/><rect x="675.8" y="579.8" width="10.3" height="10.3" rx="2" fill="rgb(255,255,255)" opacity="0.06"/><rect x="675.3" y="613.3" width="11.4" height="11.4" rx="2" fill="rgb(255,255,255)" opacity="0.10"/><rect x="674.6" y="646.6" width="12.9" height="12.9" rx="2" fill="rgb(255,255,255)" opacity="0.16"/><rect x="674.3" y="680.3" width="13.4" height="13.4" rx="2" fill="rgb(255,255,255)" opacity="0.17"/><rect x="675.9" y="715.9" width="10.2" height="10.2" rx="2" fill="rgb(255,255,255)" opacity="0.06"/><rect x="675.6" y="749.6" width="10.7" height="10.7" rx="2" fill="rgb(255,255,255)" opacity="0.07"/><rect x="708.7" y="510.7" width="12.6" height="12.6" rx="2" fill="rgb(255,255,255)" opacity="0.16"/><rect x="708.6" y="544.6" width="12.9" height="12.9" rx="2" fill="rgb(255,255,255)" opacity="0.17"/><rect x="709.4" y="579.4" width="11.1" height="11.1" rx="2" fill="rgb(255,255,255)" opacity="0.10"/><rect x="709.5" y="613.5" width="11.1" height="11.1" rx="2" fill="rgb(255,255,255)" opacity="0.10"/><rect x="708.7" y="680.7" width="12.6" height="12.6" rx="2" fill="rgb(255,255,255)" opacity="0.15"/><rect x="709.2" y="715.2" width="11.5" height="11.5" rx="2" fill="rgb(255,255,255)" opacity="0.10"/><rect x="708.7" y="782.7" width="12.7" height="12.7" rx="2" fill="rgb(255,255,255)" opacity="0.13"/><rect x="709.8" y="817.8" width="10.3" height="10.3" rx="2" fill="rgb(255,255,255)" opacity="0.06"/><rect x="743.5" y="545.5" width="10.9" height="10.9" rx="2" fill="rgb(255,255,255)" opacity="0.10"/><rect x="741.9" y="577.9" width="14.2" height="14.2" rx="2" fill="rgb(255,255,255)" opacity="0.26"/><rect x="778.0" y="410.0" width="10.0" height="10.0" rx="2" fill="rgb(255,255,255)" opacity="0.05"/><rect x="775.9" y="441.9" width="14.1" height="14.1" rx="2" fill="rgb(255,255,255)" opacity="0.22"/><rect x="776.7" y="476.7" width="12.6" height="12.6" rx="2" fill="rgb(255,255,255)" opacity="0.17"/><rect x="775.8" y="543.8" width="14.4" height="14.4" rx="2" fill="rgb(255,255,255)" opacity="0.28"/><rect x="775.8" y="645.8" width="14.5" height="14.5" rx="2" fill="rgb(255,255,255)" opacity="0.27"/><rect x="776.3" y="714.3" width="13.4" height="13.4" rx="2" fill="rgb(255,255,255)" opacity="0.19"/><rect x="810.8" y="340.8" width="12.5" height="12.5" rx="2" fill="rgb(255,255,255)" opacity="0.12"/><rect x="811.1" y="375.1" width="11.9" height="11.9" rx="2" fill="rgb(255,255,255)" opacity="0.11"/><rect x="812.0" y="410.0" width="10.1" height="10.1" rx="2" fill="rgb(255,255,255)" opacity="0.05"/><rect x="811.9" y="443.9" width="10.2" height="10.2" rx="2" fill="rgb(255,255,255)" opacity="0.06"/><rect x="809.5" y="543.5" width="15.0" height="15.0" rx="2" fill="#E35B2D" opacity="0.85"/><rect x="811.9" y="579.9" width="10.1" height="10.1" rx="2" fill="rgb(255,255,255)" opacity="0.06"/><rect x="809.5" y="611.5" width="15.0" height="15.0" rx="2" fill="rgb(255,255,255)" opacity="0.32"/><rect x="809.6" y="645.6" width="14.8" height="14.8" rx="2" fill="rgb(255,255,255)" opacity="0.29"/><rect x="810.9" y="748.9" width="12.2" height="12.2" rx="2" fill="rgb(255,255,255)" opacity="0.13"/><rect x="845.4" y="443.4" width="11.1" height="11.1" rx="2" fill="#E35B2D" opacity="0.66"/><rect x="844.0" y="510.0" width="14.1" height="14.1" rx="2" fill="rgb(255,255,255)" opacity="0.25"/><rect x="843.7" y="543.7" width="14.5" height="14.5" rx="2" fill="rgb(255,255,255)" opacity="0.29"/><rect x="845.4" y="579.4" width="11.3" height="11.3" rx="2" fill="rgb(255,255,255)" opacity="0.12"/><rect x="844.4" y="612.4" width="13.2" height="13.2" rx="2" fill="rgb(255,255,255)" opacity="0.22"/><rect x="845.2" y="647.2" width="11.7" height="11.7" rx="2" fill="rgb(255,255,255)" opacity="0.13"/><rect x="878.0" y="442.0" width="13.9" height="13.9" rx="2" fill="rgb(255,255,255)" opacity="0.20"/><rect x="879.1" y="477.1" width="11.8" height="11.8" rx="2" fill="rgb(255,255,255)" opacity="0.13"/><rect x="877.7" y="509.7" width="14.7" height="14.7" rx="2" fill="#E35B2D" opacity="0.83"/><rect x="879.2" y="613.2" width="11.5" height="11.5" rx="2" fill="rgb(255,255,255)" opacity="0.12"/><rect x="877.8" y="645.8" width="14.4" height="14.4" rx="2" fill="rgb(255,255,255)" opacity="0.25"/><rect x="878.1" y="680.1" width="13.8" height="13.8" rx="2" fill="rgb(255,255,255)" opacity="0.21"/><rect x="879.3" y="749.3" width="11.4" height="11.4" rx="2" fill="rgb(255,255,255)" opacity="0.10"/><rect x="879.0" y="783.0" width="12.0" height="12.0" rx="2" fill="rgb(255,255,255)" opacity="0.11"/><rect x="913.3" y="375.3" width="11.4" height="11.4" rx="2" fill="rgb(255,255,255)" opacity="0.09"/><rect x="914.0" y="410.0" width="10.0" height="10.0" rx="2" fill="rgb(255,255,255)" opacity="0.05"/><rect x="913.3" y="443.3" width="11.4" height="11.4" rx="2" fill="rgb(255,255,255)" opacity="0.10"/><rect x="913.9" y="477.9" width="10.2" height="10.2" rx="2" fill="rgb(255,255,255)" opacity="0.06"/><rect x="913.6" y="511.6" width="10.9" height="10.9" rx="2" fill="rgb(255,255,255)" opacity="0.09"/><rect x="913.8" y="613.8" width="10.5" height="10.5" rx="2" fill="#E35B2D" opacity="0.62"/><rect x="913.3" y="647.3" width="11.4" height="11.4" rx="2" fill="rgb(255,255,255)" opacity="0.11"/><rect x="912.4" y="680.4" width="13.2" height="13.2" rx="2" fill="rgb(255,255,255)" opacity="0.18"/><rect x="912.5" y="782.5" width="12.9" height="12.9" rx="2" fill="rgb(255,255,255)" opacity="0.13"/><rect x="946.4" y="510.4" width="13.3" height="13.3" rx="2" fill="rgb(255,255,255)" opacity="0.17"/><rect x="946.8" y="578.8" width="12.3" height="12.3" rx="2" fill="rgb(255,255,255)" opacity="0.14"/><rect x="947.7" y="681.7" width="10.6" height="10.6" rx="2" fill="rgb(255,255,255)" opacity="0.07"/><rect x="947.0" y="715.0" width="12.0" height="12.0" rx="2" fill="#E35B2D" opacity="0.70"/><rect x="981.0" y="443.0" width="12.0" height="12.0" rx="2" fill="rgb(255,255,255)" opacity="0.11"/><rect x="980.6" y="476.6" width="12.9" height="12.9" rx="2" fill="rgb(255,255,255)" opacity="0.14"/><rect x="980.4" y="578.4" width="13.2" height="13.2" rx="2" fill="rgb(255,255,255)" opacity="0.16"/><rect x="980.6" y="714.6" width="12.7" height="12.7" rx="2" fill="rgb(255,255,255)" opacity="0.13"/><rect x="980.8" y="782.8" width="12.3" height="12.3" rx="2" fill="rgb(255,255,255)" opacity="0.10"/><rect x="1015.4" y="647.4" width="11.3" height="11.3" rx="2" fill="rgb(255,255,255)" opacity="0.09"/>
  <text x="983" y="90" text-anchor="end" font-size="34" font-weight="500" fill="#FAFAF8" letter-spacing="-0.3">yempik</text><rect x="990" y="80" width="10" height="10" rx="1.5" fill="#E35B2D"/>
  <text x="84" y="312" font-size="22" font-weight="600" fill="#E35B2D" letter-spacing="3">OPEN SOURCE · FOR CLAUDE CODE</text>
  
  <text x="84" y="556" font-size="54" font-weight="500" fill="#FAFAF8" letter-spacing="-1.6">code-os is live.</text>
  <text x="84" y="624" font-size="54" font-weight="500" fill="#FAFAF8" letter-spacing="-1.6">Use AI as a system, not a session.</text>
  <text x="85" y="712" font-size="27" font-weight="400" fill="rgba(255,255,255,0.55)" letter-spacing="-0.2">The engineer's operating system for Claude Code.</text>
  <text x="85" y="750" font-size="27" font-weight="400" fill="rgba(255,255,255,0.55)" letter-spacing="-0.2">Safety + memory harness · second brain · curated skills.</text>
  <text x="85" y="1000" font-size="25" font-weight="500" fill="#E35B2D" letter-spacing="-0.2">#ClaudeCode&#160;&#160;&#160;#AgenticEngineering&#160;&#160;&#160;#OpenSource</text>
</svg>