<svg xmlns="http://www.w3.org/2000/svg" viewBox="0 0 620 640" width="620" height="640"><g fill="#6f7173" opacity="0.15"><circle cx="82" cy="82" r="1.4"/><circle cx="164" cy="82" r="1.4"/><circle cx="246" cy="82" r="1.4"/><circle cx="328" cy="82" r="1.4"/><circle cx="410" cy="82" r="1.4"/><circle cx="492" cy="82" r="1.4"/><circle cx="574" cy="82" r="1.4"/><circle cx="82" cy="164" r="1.4"/><circle cx="164" cy="164" r="1.4"/><circle cx="246" cy="164" r="1.4"/><circle cx="328" cy="164" r="1.4"/><circle cx="410" cy="164" r="1.4"/><circle cx="492" cy="164" r="1.4"/><circle cx="574" cy="164" r="1.4"/><circle cx="82" cy="246" r="1.4"/><circle cx="164" cy="246" r="1.4"/><circle cx="246" cy="246" r="1.4"/><circle cx="328" cy="246" r="1.4"/><circle cx="410" cy="246" r="1.4"/><circle cx="492" cy="246" r="1.4"/><circle cx="574" cy="246" r="1.4"/><circle cx="82" cy="328" r="1.4"/><circle cx="164" cy="328" r="1.4"/><circle cx="246" cy="328" r="1.4"/><circle cx="328" cy="328" r="1.4"/><circle cx="410" cy="328" r="1.4"/><circle cx="492" cy="328" r="1.4"/><circle cx="574" cy="328" r="1.4"/><circle cx="82" cy="410" r="1.4"/><circle cx="164" cy="410" r="1.4"/><circle cx="246" cy="410" r="1.4"/><circle cx="328" cy="410" r="1.4"/><circle cx="410" cy="410" r="1.4"/><circle cx="492" cy="410" r="1.4"/><circle cx="574" cy="410" r="1.4"/><circle cx="82" cy="492" r="1.4"/><circle cx="164" cy="492" r="1.4"/><circle cx="246" cy="492" r="1.4"/><circle cx="328" cy="492" r="1.4"/><circle cx="410" cy="492" r="1.4"/><circle cx="492" cy="492" r="1.4"/><circle cx="574" cy="492" r="1.4"/><circle cx="82" cy="574" r="1.4"/><circle cx="164" cy="574" r="1.4"/><circle cx="246" cy="574" r="1.4"/><circle cx="328" cy="574" r="1.4"/><circle cx="410" cy="574" r="1.4"/><circle cx="492" cy="574" r="1.4"/><circle cx="574" cy="574" r="1.4"/></g><path d="M 546.0 74.0 L 546.0 203.6 Q 546.0 238.0 546.0 272.4 L 546.0 285.6 Q 546.0 320.0 546.0 354.4 L 546.0 367.6 Q 546.0 402.0 546.0 436.4 L 546.0 449.6 Q 546.0 484.0 511.6 484.0 L 391.6 484.0 Q 357.2 484.0 357.2 518.4 L 357.2 531.6 Q 357.2 566.0 322.8 566.0 L 74.0 566.0" fill="none" stroke="#6f7173" stroke-width="2.2" stroke-linecap="round" stroke-linejoin="round"/><line x1="546.0" y1="74.0" x2="546.0" y2="196.4" stroke="#6f7173" stroke-width="1.8" stroke-dasharray="2 6" stroke-linecap="round" opacity="0.5"/><rect x="537.0" y="65.0" width="18.04" height="18.04" fill="#6f7173"/><rect x="537.0" y="229.0" width="18.04" height="18.04" fill="none" stroke="#6f7173" stroke-width="2.2"/><rect x="537.0" y="311.0" width="18.04" height="18.04" fill="#6f7173"/><rect x="537.0" y="393.0" width="18.04" height="18.04" fill="none" stroke="#6f7173" stroke-width="2.2"/><rect x="537.0" y="475.0" width="18.04" height="18.04" fill="none" stroke="#6f7173" stroke-width="2.2"/><rect x="348.2" y="475.0" width="18.04" height="18.04" fill="none" stroke="#6f7173" stroke-width="2.2"/><rect x="348.2" y="557.0" width="18.04" height="18.04" fill="none" stroke="#6f7173" stroke-width="2.2"/><rect x="65.0" y="557.0" width="18.04" height="18.04" fill="none" stroke="#6f7173" stroke-width="2.2"/><path d="M 44.4 326.0011802469812 L 44.4 340.7611802469812 L 59.16 340.7611802469812" fill="none" stroke="#6f7173" stroke-width="2.2" stroke-linecap="round" opacity="0.85"/></svg>